<?xml version="1.0" encoding="utf-8"?>
<!-- Generator: Adobe Illustrator 20.1.0, SVG Export Plug-In . SVG Version: 6.00 Build 0)  -->
<svg version="1.1" xmlns="http://www.w3.org/2000/svg" xmlns:xlink="http://www.w3.org/1999/xlink" x="0px" y="0px"
	 viewBox="0 0 258 155.9" style="enable-background:new 0 0 258 155.9;" xml:space="preserve">
<style type="text/css">
	.st0{fill:#688A32;stroke:#000000;stroke-miterlimit:10;stroke-opacity:0.8;}
	.st1{font-family:'CataneoBT-Regular';}
	.st2{font-size:6px;}
	.st3{font-family:'YentiEGP-Medium-SJIS';}
	.st4{fill:none;stroke:#595757;stroke-miterlimit:10;}
	.st5{fill:#221714;}
</style>
<g id="背景">
	<rect x="-8.5" y="-8.5" class="st0" width="275" height="172.9"/>
</g>
<g id="文字">
	<g>
		<path d="M24.5,18c0.1-0.1,0.1-0.3,0.2-0.6s0.1-0.8,0.1-1.4c0-0.8,0-1.6-0.1-2.2s-0.2-1-0.4-1.1c0.2-0.2,0.4-0.3,0.6-0.3
			c0.2,0,0.5,0.1,0.7,0.3s0.3,0.5,0.5,0.9s0.2,0.8,0.2,1.3c0,0.3,0,0.8-0.1,1.4s-0.1,1.1-0.1,1.3l1.7-0.7c0-0.2,0-0.4-0.1-0.6
			s-0.1-0.3-0.3-0.5c0.3-0.2,0.6-0.3,0.8-0.3s0.5,0.1,0.6,0.2s0.2,0.3,0.2,0.5c0,0.1,0,0.2-0.1,0.3l1.4-0.7c0,0.1-0.1,0.4-0.4,0.7
			s-0.6,0.7-0.9,1l-2,4c0.3,0,0.8,0.3,1.4,0.8s1.1,1.2,1.2,1.9c0.1,0.4,0.2,0.7,0.2,0.9c0,0.3-0.1,0.5-0.4,0.5
			c-0.3,0-0.5-0.1-0.8-0.4s-0.5-0.5-0.8-0.7s-0.9-0.6-1.9-1.3c-0.2,0.5-0.8,1.1-1.8,1.9s-1.8,1.2-2.5,1.2c0.8-0.5,1.6-1.1,2.2-1.7
			s1-1.3,1.2-1.9c-0.5-0.2-0.9-0.4-1.3-0.7s-0.6-0.7-0.6-1c0-0.2,0.1-0.4,0.2-0.6c-0.6,0.6-1.3,0.9-2.1,0.9S20,21,20,20.4
			c0-0.2,0-0.4,0.1-0.7c0.3,0,1-0.2,2-0.6S24,18.4,24.5,18z M25.5,21.4l1.3-2.7l-1.3,0.7l-1,1.7L25.5,21.4z M31.1,12.4
			c0.7,0,1.6-0.2,2.6-0.5s1.6-0.5,1.9-0.5c0.3,0,0.6,0.1,0.8,0.2s0.4,0.4,0.7,0.8c0.2,0.3-0.2,1-1.1,2.1s-1.4,1.7-1.5,1.9
			c0.7,0.3,1.2,0.5,1.4,0.8s0.5,0.4,0.6,0.6c0.4-0.1,0.7-0.1,1.1-0.1c0.5,0,1,0.1,1.4,0.2s0.7,0.3,0.8,0.6c0.1,0.2,0.2,0.4,0.2,0.6
			c0,0.3-0.2,0.7-0.7,0.9s-1.2,0.6-2.1,0.8c0,2-0.3,3.6-0.9,4.7S34.9,27,34.1,27c-0.4,0-1-0.5-1.9-1.5s-1.6-2.1-2.1-3.1
			c-0.1-0.1-0.2-0.2-0.3-0.4s-0.1-0.3-0.1-0.5c0-0.3,0.2-0.6,0.5-0.9s1-0.7,2-1.2s2-0.9,2.9-1.3c-0.8-0.3-1.3-0.6-1.6-0.9
			s-0.5-0.6-0.5-1c0-0.4,0.2-0.9,0.7-1.6s0.7-1.1,0.8-1.2c-0.5,0.1-0.9,0.2-1.2,0.2s-0.5,0.1-0.6,0.1c-0.4,0-0.8-0.1-1-0.3
			S31.2,12.9,31.1,12.4z M35.1,20c-0.6,0.2-1.5,0.4-2.8,0.5s-2,0.5-2.2,1.1c0.4,0.8,1,1.5,1.8,2s1.5,1,2.2,1.3
			c0.8-1,1.1-2.2,1.1-3.7C35.3,20.9,35.2,20.5,35.1,20z M37.1,19.7V20c0.2,0,0.3,0,0.4-0.1s0.2-0.1,0.2-0.3H37.1z"/>
		<path d="M45.8,15.7c0.5,0.3,0.8,1.1,1.2,2.2s0.5,2.2,0.5,3.1c0.1-0.1,0.2-0.2,0.3-0.4s0.2-0.4,0.4-0.6c0,0.2-0.1,0.5-0.1,0.9
			s0,0.6,0,0.6c0,0.5,0,0.9,0,1.4s0,0.9,0.1,1.2c0,0.4,0,0.6-0.1,0.8s-0.1,0.3-0.2,0.3c-0.8,0-1.4-0.5-1.7-1.4s-0.5-2.1-0.5-3.6
			c0-0.7,0-1.3,0.1-2s0.1-1.4,0.1-2.2C45.8,16,45.8,15.8,45.8,15.7z M48.8,16.4c0.2-0.6,1-1.5,2.5-2.6s2.5-1.7,3.2-1.7
			c0.9,0.4,1.5,1,2,1.7s0.7,2,0.7,4c0,1-0.1,2.4-0.4,4.3s-0.5,3-0.6,3.4c-0.2,0.7-0.5,1.2-0.8,1.5s-0.6,0.5-0.9,0.5
			c-0.4,0-0.7-0.2-1-0.6s-0.5-0.9-0.7-1.3c-0.1,0-0.3,0-0.6,0s-0.5,0-0.5,0c-0.7,0-1.2-0.1-1.6-0.2s-0.6-0.4-0.6-0.9
			c0.4-0.2,0.8-0.4,1.3-0.5s0.8-0.2,1.2-0.2c0.5,0,1,0.1,1.5,0.3c0.4-1,0.7-2.4,0.8-4.1s0.2-3.4,0.2-4.9c-0.8,0-1.9,0.2-3.3,0.7
			S49,16.4,48.8,16.4z M48.8,20.7c0-0.5,0.4-1,1.1-1.3s1.5-0.5,2.3-0.5c0.8,0,1.1,0.2,1.1,0.6c0,0.2-0.2,0.5-0.6,0.9
			s-1.1,0.9-1.9,1.4c0-0.2,0.1-0.4,0.2-0.7s0.3-0.5,0.5-0.6c-0.3,0-0.7,0.1-1.3,0.2S49.1,20.7,48.8,20.7z"/>
		<path d="M64.5,17.4c0.2,0,0.3,0.2,0.5,0.5s0.2,0.6,0.2,0.8c0,0.2-0.1,0.6-0.3,1.2s-0.3,1.1-0.3,1.4c-0.2,0.5-0.4,0.7-0.7,0.7
			c-0.2,0-0.3-0.1-0.5-0.3s-0.2-0.6-0.2-1c0-0.2,0.2-0.7,0.7-1.5S64.5,17.8,64.5,17.4z M70.8,21.4c0.2-0.1,0.3-0.1,0.5-0.1
			c0.3,0,0.6,0.1,0.9,0.3s0.4,0.5,0.4,0.9c0.1-0.1,0.2-0.1,0.3-0.1s0.2-0.1,0.4-0.1c0.2,0,0.3,0.1,0.4,0.2s0.2,0.2,0.2,0.4
			c0,0.2-0.2,0.4-0.5,0.6s-0.6,0.4-0.8,0.6c0,0.4,0,0.8-0.1,1.1s-0.1,0.7-0.3,1.1c0.4-0.1,1-0.3,1.9-0.4s1.6-0.2,2.2-0.2
			c0.8,0,1.4,0.1,2,0.3s0.8,0.6,1,1c0,0.2-0.1,0.4-0.3,0.5s-0.5,0.2-0.8,0.2c-0.3,0-0.6,0-0.9-0.1s-0.5-0.1-0.7-0.2
			s-0.4-0.1-0.8-0.2s-0.7-0.1-1.2-0.1c-0.4,0-0.8,0-1.3,0.1s-0.8,0.1-1.1,0.2c-1,0.1-2,0.4-3,0.8s-1.6,0.6-1.9,0.6
			c-0.1,0-0.3,0-0.4-0.1c-0.3,0-0.5-0.1-0.6-0.2s-0.3-0.3-0.4-0.4c0.7-0.2,1.7-0.5,3-0.9s2-0.5,2.1-0.6c0-0.2,0.1-0.4,0.2-0.8
			s0.1-0.9,0.1-1.4c-0.4,0.2-0.7,0.4-1.1,0.5S69.5,25,69.2,25c-0.3,0-0.6-0.1-0.8-0.2s-0.3-0.3-0.3-0.5c0.5-0.1,1.1-0.3,1.7-0.6
			s1.1-0.6,1.3-0.6c0-0.3-0.1-0.7-0.2-1s-0.2-0.5-0.2-0.6C70.7,21.5,70.7,21.4,70.8,21.4z M69.8,10.7c0.2,0,0.4,0,0.5,0
			c0.6,0,1.1,0.2,1.4,0.7s0.5,1.2,0.5,2.1c0,0.2,0,0.4,0,0.6c0,0.3-0.1,0.5-0.1,0.6c0.7-0.7,1.3-1.2,1.7-1.6s0.8-0.7,1.3-1.1
			c-0.1-0.1-0.1-0.2-0.2-0.3c-0.1-0.1-0.2-0.2-0.5-0.3c0.4-0.2,0.7-0.2,1.1-0.2c0.4,0,0.7,0.1,1,0.3s0.4,0.4,0.4,0.7
			c0,0.1,0,0.2-0.1,0.3c-1.3,0.7-2.3,1.3-3,1.8s-1.3,0.9-1.6,1.2c0.8-0.2,1.8-0.4,3-0.6s2-0.3,2.3-0.3c0.7,0,1.4,0.1,2,0.3
			s1,0.5,1,1c0,0.5-0.7,1-2.2,1.5s-2.6,0.7-3.5,0.9c-0.4,0.3-0.7,0.6-1,0.8s-0.6,0.5-1,0.9c0.7,0.1,1,0.3,1,0.6
			c0,0.2-0.1,0.3-0.4,0.4s-0.6,0.2-1,0.2c-0.4,0-0.8-0.1-1.2-0.2c-0.2,0-0.3,0-0.4-0.1s-0.1-0.1-0.1-0.3c0-0.1,0-0.4,0.1-0.7
			c0.2,0,0.4-0.1,0.7-0.4s0.5-0.6,0.7-0.9c-0.6,0.1-1.2,0.2-1.8,0.4s-0.9,0.4-0.9,0.6c0.2,0.6,0.2,1,0.2,1.3c0,0.3-0.1,0.5-0.3,0.5
			c-0.1,0-0.2,0-0.3-0.1c-0.1,0-0.2-0.3-0.4-1s-0.2-1.1-0.3-1.3h0.7c0.4-0.3,1-0.5,1.8-0.7s1.3-0.3,1.7-0.5s0.6-0.4,0.9-0.4
			c0.2,0,0.4,0.1,0.6,0.2s0.3,0.3,0.4,0.4l2.7-1.7c-0.5-0.1-1-0.1-1.6-0.1c-2.5,0-5.6,0.8-9.4,2.4c0-0.4,0.5-0.9,1.5-1.4
			s2-0.9,2.8-1.2v-2.3c0-0.8,0-1.4-0.1-1.6S70.1,11.2,69.8,10.7z M67.1,15.4c0.3-0.1,0.7-0.3,1.3-0.8s1.2-0.7,1.7-0.9
			c-0.2,0.3-0.6,0.8-1.2,1.5s-1,1.1-1.1,1.2s-0.3,0.3-0.5,0.4s-0.3,0.1-0.5,0.1c-0.2,0-0.4-0.1-0.5-0.3s-0.2-0.5-0.2-1
			c0-0.2,0.1-0.5,0.3-0.9s0.4-0.6,0.7-0.8V15.4z"/>
		<path d="M86.5,15.7c0.1,0.3,0.3,0.9,0.6,1.9s0.6,1.8,0.6,2.4c0,0.4-0.1,0.8-0.2,1.3c-0.5-0.1-1-0.4-1.3-0.9s-0.5-1.2-0.5-1.9
			C85.7,17.6,86,16.7,86.5,15.7z M87.5,17c0.2-0.5,0.5-1,0.9-1.5s0.6-0.8,0.8-0.8c0.7,0,1.3,0.1,1.5,0.2s0.4,0.4,0.4,0.9
			c0,0.4-0.1,0.9-0.3,1.6l1.4-1.7c-0.2,0.9-0.7,2.1-1.4,3.5s-1.3,2-1.6,1.9c-0.3,0-0.5-0.1-0.6-0.4s-0.1-0.6-0.1-0.9
			c0.2-0.5,0.3-0.9,0.4-1.3s0.1-0.7,0.1-1c0-0.3,0-0.5-0.1-0.7c-0.2,0-0.4,0.1-0.7,0.2s-0.4,0.2-0.5,0.2
			C87.6,17.1,87.5,17.1,87.5,17z M94.8,21.4c0.1-0.1,0.2-0.1,0.3-0.1s0.3,0,0.4,0c0.4,0,0.8,0.2,1.1,0.5s0.4,0.6,0.3,0.7
			c0.5-0.2,1.2-0.4,1.9-0.5s1.4-0.3,2.1-0.3c0.6,0,1.1,0.1,1.5,0.3s0.6,0.4,0.7,0.6s0.1,0.4,0.1,0.4s0,0.1,0,0.1
			c0,0.2-0.1,0.3-0.4,0.3c-0.6-0.1-1.2-0.2-1.7-0.3s-1-0.1-1.4-0.1c-0.5,0-1,0-1.4,0.1s-0.9,0.2-1.5,0.5c-0.6,1.7-1.4,3-2.4,3.8
			s-1.9,1.2-2.7,1.2c-0.3,0-0.5-0.1-0.5-0.2c0.7-0.3,1.4-1,2.3-1.9s1.3-1.7,1.6-2.5c-0.8,0.3-1.6,0.5-2.4,0.7s-1.4,0.3-2,0.3
			c-0.5,0-0.9-0.1-1.1-0.4c0.7-0.1,1.5-0.3,2.5-0.5s2-0.6,3.3-1.2c0.1-0.2,0.1-0.4,0.1-0.6c0-0.3-0.1-0.5-0.2-0.6
			S94.9,21.5,94.8,21.4z M94.2,13.9c0-0.1,0-0.3,0-0.5s0-0.4,0-0.5c0-0.4,0-0.7-0.1-1.1s-0.2-0.7-0.3-1c0.2-0.1,0.5-0.1,0.6-0.1
			c0.5,0,0.8,0.2,1.1,0.6s0.4,0.8,0.4,1.3c0,0.4-0.1,0.7-0.2,1c0.3-0.1,0.6-0.1,0.8-0.1c0.3,0,0.4,0.1,0.4,0.3
			c0,0.2-0.2,0.4-0.5,0.6s-0.6,0.4-1,0.4l-0.1,1c0.2,0,0.3,0,0.5,0.1s0.2,0.1,0.2,0.3c0,0.3-0.1,0.5-0.3,0.6s-0.4,0.2-0.6,0.2
			l-0.2,0.8c0.3-0.2,0.4-0.4,0.5-0.4s0.1,0,0.1,0.1c0,0.3-0.4,0.9-1.1,1.7s-1.2,1.3-1.6,1.3c-0.2,0-0.3-0.2-0.3-0.5
			c0-0.1,0-0.2,0-0.2l1.7-1.5V17c-0.1,0-0.2,0-0.4,0.1s-0.3,0-0.4,0c-0.4,0-0.6-0.1-0.6-0.2l0-0.2l1.3-0.7v-1.1
			C94,15,93.8,15,93.6,15s-0.4,0.1-0.7,0.1c-0.2,0-0.4,0-0.6-0.1s-0.2-0.1-0.2-0.3L94.2,13.9z M94.8,20.7c0.6-0.5,1.2-1.2,1.8-1.9
			s0.9-1.5,0.9-2.3c0-0.4-0.1-0.8-0.3-1.1c0.5,0.1,0.9,0.2,1.2,0.5s0.4,0.6,0.4,0.9c0,0.8-0.5,1.7-1.5,2.6S95.4,20.8,94.8,20.7z
			 M97.5,14.7c0.6-0.2,1.2-0.4,1.8-0.7s1.3-0.3,1.8-0.3c0.5,0.1,0.8,0.3,1,0.7s0.3,0.9,0.3,1.6c0,1.1-0.3,2.2-0.8,3.3
			s-1,1.6-1.5,1.5c-0.4,0-0.7-0.1-0.9-0.3s-0.3-0.4-0.4-0.7c0.7-0.2,1.2-0.6,1.5-1.3s0.5-1.9,0.5-3.7c-0.4,0-0.8,0.1-1.3,0.1
			s-0.9,0.1-1.1,0.1c-0.3,0-0.6,0-0.7,0S97.5,14.8,97.5,14.7z M97.8,25.4c0.4-0.2,0.8-0.3,1.1-0.4s0.7-0.1,1-0.1
			c0.9,0,1.6,0.3,2.2,0.9s0.8,1.1,0.8,1.7c0,0.1,0,0.2-0.1,0.3s-0.3,0.2-0.6,0.2c-0.4,0-0.8-0.1-1.2-0.2s-0.8-0.2-1.2-0.4
			c0.2-0.1,0.3-0.2,0.5-0.3s0.2-0.2,0.2-0.4c-0.1-0.3-0.4-0.5-0.8-0.7C99,25.8,98.4,25.6,97.8,25.4z"/>
		<path d="M108.1,25.7c2.1-1.3,4-2.9,5.5-4.9s2.3-3.6,2.3-4.8c0-0.3-0.1-0.5-0.2-0.7c0.5,0,0.9,0.1,1.2,0.2s0.4,0.4,0.4,0.7
			c0,0.5-0.3,1.2-1,2.1c0.5-0.3,1.6-0.6,3.1-1c1.5-0.4,2.8-0.6,3.9-0.6c0.7,0,1.2,0.1,1.5,0.3c0.3,0.2,0.5,0.4,0.5,0.6
			c0,0.4-0.3,0.6-1,0.8c-0.6,0.2-1.5,0.3-2.5,0.5s-2,0.4-2.9,0.5l2.3-1c-0.7,0-1.5,0.1-2.5,0.2s-1.9,0.3-2.8,0.4
			c-0.4,1-1.4,2.3-3.2,3.9S109.7,25.4,108.1,25.7z M119.5,9c0.5,0.2,0.9,0.4,1.1,0.6s0.3,0.5,0.3,0.9c0,0.3-0.1,0.6-0.2,0.9
			c-0.1,0.3-0.2,0.5-0.2,0.7c0.7,0,1.3,0,1.6,0.1s0.6,0.2,0.8,0.5c-0.2,0.3-0.6,0.6-1.1,0.7s-1.2,0.2-1.8,0.2
			c-0.2,0.4-0.4,0.7-0.8,1.1s-0.8,0.6-1.3,0.7c0.2-0.3,0.3-0.6,0.4-0.8s0.2-0.5,0.3-0.7c-0.5,0.1-1,0.2-1.6,0.4s-1.1,0.3-1.4,0.5V15
			c0,0.6,0,1.1-0.1,1.5s-0.1,0.7-0.3,0.8c-0.2,0-0.3,0.1-0.4,0.1c-0.4,0-0.6-0.2-0.8-0.6s-0.2-0.9-0.2-1.5V15c-0.2,0-0.4,0-0.7,0.1
			s-0.5,0.1-0.7,0.1c-0.2,0-0.5-0.1-0.7-0.2s-0.4-0.3-0.7-0.7c0.2,0,0.3,0,0.5,0s0.3,0,0.5,0c0.3,0,0.5,0,0.8-0.1s0.5-0.2,0.9-0.3
			c0-0.4,0-0.8-0.1-1.1c-0.1-0.4-0.2-0.6-0.2-0.8c0.1-0.1,0.2-0.1,0.4-0.1c0.3,0,0.6,0.1,0.9,0.4s0.5,0.6,0.6,1
			c0.7-0.3,1.2-0.5,1.7-0.6s1.1-0.3,1.8-0.4c0.2-0.6,0.4-1.1,0.5-1.4s0.1-0.7,0.1-1.2c0-0.1,0-0.2,0-0.3
			C119.5,9.2,119.5,9.1,119.5,9z M113.8,24.4c0.3,0.2,0.6,0.5,0.8,0.9s0.3,0.9,0.3,1.4c0,0.2-0.1,0.4-0.2,0.6s-0.3,0.3-0.5,0.3
			c-0.2,0-0.3-0.1-0.4-0.3s-0.2-0.5-0.2-0.9c0-0.1,0.1-0.3,0.2-0.8S113.8,24.7,113.8,24.4z M118.1,21c0.3-0.1,0.6-0.1,0.9-0.2
			s0.5-0.1,0.7-0.1c0.4,0,0.7,0.2,0.8,0.6c0.1,0.3-0.1,0.6-0.8,0.8s-1.1,0.4-1.5,0.5c0,0.4,0,1.1,0.1,2s0.1,1.6,0.1,2
			c0,0.7-0.1,1.2-0.2,1.6s-0.3,0.6-0.7,0.7c-0.3-0.3-0.5-0.6-0.6-0.7s-0.1-0.4-0.1-0.6c0.1-0.6,0.2-1.3,0.3-2.1s0.1-1.7,0.1-2.7
			c-0.9,0.2-1.9,0.4-2.8,0.6c-0.2,0-0.4,0-0.5-0.1s-0.2-0.2-0.2-0.3c0.6-0.3,1.2-0.7,1.7-1s1.1-0.6,1.6-0.8c0-0.3,0-0.5-0.1-0.8
			s-0.2-0.5-0.2-0.8c0.5,0,0.8,0.1,1,0.4S118.1,20.7,118.1,21z M120.5,23.7c0.7,0,1.4,0.1,2,0.3c0.6,0.2,1.2,0.5,1.6,1
			c0.2,0.3,0.3,0.5,0.3,0.7c0,0.3-0.2,0.4-0.5,0.4c-0.3,0-0.6-0.1-1-0.4s-0.8-0.6-1.3-1.2C121.1,24.1,120.7,23.8,120.5,23.7z"/>
	</g>
	<text transform="matrix(1 0 0 1 19.667 39.3803)"><tspan x="0" y="0" class="st1 st2">QUO</tspan><tspan x="11.9" y="-0.1" class="st3 st2">　</tspan><tspan x="17.9" y="0" class="st1 st2">J</tspan><tspan x="20.2" y="0" class="st1 st2">I</tspan><tspan x="22.6" y="0" class="st1 st2">TS</tspan><tspan x="29.1" y="0" class="st1 st2">U</tspan><tspan x="33.3" y="-0.1" class="st3 st2">　</tspan><tspan x="39.3" y="0" class="st1 st2">D</tspan><tspan x="43.6" y="0" class="st1 st2">O</tspan><tspan x="47.5" y="-0.1" class="st3 st2">　</tspan><tspan x="53.5" y="0" class="st1 st2">B</tspan><tspan x="57.4" y="0" class="st1 st2">OO</tspan><tspan x="65.3" y="0" class="st1 st2">K</tspan><tspan x="69.3" y="-0.1" class="st3 st2">　</tspan><tspan x="75.3" y="0" class="st1 st2">AND</tspan><tspan x="87.6" y="-0.1" class="st3 st2">　</tspan><tspan x="93.6" y="0" class="st1 st2">C</tspan><tspan x="96.9" y="0" class="st1 st2">A</tspan><tspan x="100.8" y="0" class="st1 st2">FF</tspan><tspan x="107.6" y="0" class="st1 st2">E</tspan><tspan x="0" y="10.5" class="st1 st2">S</tspan><tspan x="3" y="10.5" class="st1 st2">I</tspan><tspan x="5.3" y="10.5" class="st1 st2">N</tspan><tspan x="9.5" y="10.5" class="st1 st2">C</tspan><tspan x="12.9" y="10.5" class="st1 st2">E</tspan><tspan x="16.4" y="10.4" class="st3 st2">　</tspan><tspan x="22.4" y="10.5" class="st1 st2">2</tspan><tspan x="25.3" y="10.5" class="st1 st2">01</tspan><tspan x="31" y="10.5" class="st1 st2">4</tspan></text>
	<g>
		<path d="M97.2,78.3c0.8,0.3,1.4,0.6,1.7,1s0.5,1,0.5,1.7c0,0.1-0.1,1.1-0.3,2.8c-0.2,1.8-0.3,3.1-0.3,4c0.4-0.1,0.7-0.2,1.1-0.3
			c0.4-0.1,0.7-0.1,1-0.1c0.6,0,1,0.1,1.4,0.3c0.3,0.2,0.5,0.4,0.5,0.6c0,0.3-0.4,0.6-1.1,0.8c-0.9,0-2.1,0.1-3.6,0.3
			c-1.5,0.2-2.7,0.4-3.7,0.7c-0.3,0.4-0.6,0.7-0.9,0.9c-0.3,0.2-0.6,0.3-1,0.3c-0.4,0-0.8-0.1-1.1-0.4c-0.3-0.3-0.4-0.6-0.4-0.9
			c0-0.5,0.3-0.7,0.9-0.8c-0.1-0.2-0.1-0.8-0.2-1.6s-0.3-1.7-0.8-2.5c0.2-0.2,0.4-0.4,0.6-0.4c0.5,0,1,0.4,1.5,1.3
			c0.5,0.9,0.8,1.8,0.8,2.8c0.3,0,0.9-0.1,1.9-0.2c1-0.1,1.7-0.3,2.2-0.4c-0.2-0.1-0.3-0.3-0.4-0.5c-0.1-0.3-0.1-0.6-0.1-1
			c0-0.4,0-1.2,0.1-2.3c0.1-1.2,0.1-2,0.1-2.6c0-0.7,0-1.3-0.1-1.8C97.5,79.4,97.4,78.9,97.2,78.3z M103.3,90
			c0.4-0.2,0.6-0.7,0.8-1.4c0.2-0.7,0.3-1.8,0.5-3.2c0.2-1.4,0.4-2.3,0.5-2.7c0.5,0.1,0.9,0.3,1.2,0.8c0.2,0.5,0.4,1.1,0.4,1.9
			c0,1.3-0.3,2.7-0.8,4.2c-0.6,1.5-1.1,2.2-1.6,2.3c-0.1,0-0.3-0.1-0.6-0.2s-0.4-0.5-0.4-1.2C103.2,90.5,103.2,90.3,103.3,90z"/>
		<path d="M115.9,89.1c0,0.4-0.2,0.6-0.7,0.6c-0.2,0-0.5-0.1-0.7-0.3c-0.2-0.2-0.3-0.5-0.3-0.9c-0.1-0.6-0.3-1.5-0.7-2.7
			c-0.3-1.2-0.5-2-0.5-2.4c0-0.4,0.1-0.7,0.2-1c0.7,1.3,1.2,2.5,1.7,3.6C115.5,87.2,115.8,88.2,115.9,89.1z M116.8,82.1
			c1-0.7,2.1-1.3,3.4-1.9s2.5-0.9,3.6-0.9c0.6,0,1.1,0.1,1.6,0.3c0.5,0.2,0.9,0.5,1.2,0.9c0.4,0.5,0.6,1.2,0.6,2
			c0,0.9-0.3,2-0.8,3.2c-0.5,1.2-0.9,2.2-1.2,2.9c-0.3,0.7-0.6,1.2-0.8,1.6c-0.2,0.4-0.5,0.5-0.8,0.5c-0.1,0-0.3-0.1-0.4-0.2
			c-0.1-0.2-0.3-0.4-0.4-0.8c-0.2,0-0.5-0.1-0.7-0.1c-0.3,0-0.7,0-1.4,0.1c-0.6,0.1-1,0.1-1.1,0.1c-0.4,0-0.7-0.1-1-0.3
			c-0.3-0.2-0.5-0.6-0.6-1.2c0.4-0.3,0.7-0.7,0.8-1.1c0.1-0.4,0.2-1.1,0.2-2.1l-2.2,0.9c0-0.3,0.3-0.6,0.8-1c0.5-0.4,1-0.7,1.5-0.9
			c0-0.3,0-0.6-0.1-1c0-0.3-0.1-0.6-0.3-0.9c0.3-0.1,0.6-0.2,0.9-0.2c0.3,0,0.6,0.1,0.8,0.2c0.2,0.2,0.3,0.4,0.3,0.8
			c0,0.1,0,0.3-0.1,0.4c0.3-0.1,0.5-0.1,0.6-0.1c0.2,0,0.4,0.1,0.5,0.2c0.1,0.1,0.3,0.3,0.4,0.6c0,0.1,0.1,0.2,0.1,0.4
			c0,0.5-0.2,1.1-0.6,1.9c-0.4,0.7-0.9,1.3-1.3,1.6c0.1,0,0.3,0,0.6,0s0.4,0,0.6,0c0.3,0,0.6,0,0.8,0.1s0.4,0.3,0.6,0.5
			c0.6-1.2,1.1-2.4,1.4-3.6c0.3-1.2,0.5-2.5,0.5-4c-1.1,0-2.3,0.1-3.6,0.4c-1.3,0.2-2.5,0.5-3.8,0.7
			C117.1,82.2,116.9,82.2,116.8,82.1z"/>
		<path d="M140.5,82.1c0.1-0.3,0.2-0.9,0.3-1.7c0.1-0.8,0.1-1.6,0.1-2.2c0-0.6,0-1-0.1-1.2c0.1,0,0.2,0,0.3,0c0.4,0,0.8,0.1,1.1,0.4
			c0.3,0.3,0.5,0.8,0.5,1.7c0,0.5-0.1,1.2-0.3,2.1c0.1,0,0.5-0.1,1.1-0.3c0.6-0.2,1.2-0.3,1.8-0.3c0.4,0,0.8,0.1,1,0.3
			c0.3,0.2,0.4,0.4,0.4,0.6c0,0.3-0.2,0.5-0.5,0.7c-0.6,0-1.3,0.1-2.1,0.3c-0.7,0.2-1.4,0.4-2,0.7c0,0.1,0,0.4-0.1,0.7
			c-0.1,0.3-0.1,0.6-0.2,0.9c0.9,1.4,2,2.4,3.2,3.2c1.2,0.7,2.6,1.5,4.3,2.3s2.6,1.4,2.7,1.8c0,0.3-0.1,0.5-0.2,0.5
			c-0.2,0.1-0.4,0.1-0.7,0.1c-0.1,0-0.3,0-0.5,0c-0.2,0-0.4,0-0.4,0c-1-0.2-2-0.6-2.8-1.2c-0.8-0.6-1.8-1.6-3-2.8
			c-1.2-1.2-2.1-2.1-2.8-2.6c-0.1,0.4-0.3,0.8-0.6,1.3c-0.2,0.5-0.5,0.9-0.7,1.3c0.5,0.2,1,0.4,1.6,0.6c0.5,0.3,0.8,0.6,0.8,1.1
			c0,0.2,0,0.5-0.1,0.8c-0.1,0.2-0.2,0.4-0.4,0.4c-0.1,0-0.5-0.3-1-1c-0.5-0.7-1-1.1-1.5-1.3c-0.8,0.8-1.6,1.5-2.2,1.9
			c-0.6,0.4-1.5,0.6-2.6,0.6c1.9-1.3,3.1-2.3,3.6-3.1c0.5-0.8,1.1-2.4,1.8-4.9c-0.3,0.1-0.8,0.3-1.6,0.7c-0.8,0.4-1.4,0.5-1.7,0.5
			c-0.4,0-0.7-0.2-0.9-0.6c0.7-0.2,1.5-0.5,2.3-1C139.3,82.8,140,82.4,140.5,82.1z"/>
		<path d="M157.5,80.5c0.3,0,0.8-0.2,1.6-0.6c0.8-0.4,1.3-0.6,1.5-0.7c0-0.2,0-0.4,0-0.5c0-0.6-0.2-1.1-0.7-1.7
			c-0.4-0.5-0.7-0.9-0.7-1c0.1-0.2,0.2-0.3,0.6-0.3c0.5,0,1,0.2,1.6,0.6c0.5,0.4,0.8,0.9,0.8,1.4c0,0.4-0.1,0.7-0.4,1.1
			c0.2-0.1,0.4-0.1,0.7-0.1c0.4,0,0.7,0.1,1,0.3c0.2,0.2,0.4,0.4,0.4,0.7c0,0.1,0,0.2-0.1,0.4c-0.1,0.5-0.3,1.2-0.6,2.2
			c-0.3,1-0.5,1.8-0.6,2.2c-0.1,0.2-0.3,0.4-0.4,0.4c-0.4,0-0.5-0.2-0.5-0.7c-0.4,0.5-0.9,0.9-1.5,1.1c-0.6,0.2-1.2,0.4-1.7,0.5
			c-0.1,0.4-0.1,0.9-0.2,1.4c-0.1,0.6-0.1,1.1-0.1,1.7c0.5-0.4,1-0.9,1.6-1.3c0.6-0.5,1-0.8,1.2-0.9c0,0.6-0.4,1.4-1.1,2.5
			c-0.8,1.1-1.3,1.7-1.7,1.9c-0.1,0.1-0.1,0.2-0.3,0.3c-0.1,0.1-0.3,0.1-0.4,0.1c-0.2,0-0.3-0.1-0.5-0.2c-0.1-0.1-0.2-0.4-0.2-0.6
			c0-0.1,0-0.3,0.1-0.5c0-0.9,0.1-2.2,0.3-4c0.2-1.8,0.3-3,0.3-3.6c-0.2-0.3-0.3-0.5-0.5-0.8c-0.1-0.2-0.2-0.5-0.2-0.7
			C156.9,80.9,157.1,80.7,157.5,80.5z M161.6,80.5c-0.2,0-0.7,0.2-1.7,0.5c-1,0.3-1.7,0.5-2.1,0.5c0.2,0.2,0.3,0.4,0.5,0.6
			c0.2,0.2,0.3,0.5,0.4,0.7c0.4-0.3,0.8-0.5,1.2-0.7c0.4-0.2,0.7-0.4,1-0.4c0.2,0,0.4,0.1,0.6,0.2L161.6,80.5z M161.5,82.7
			c-0.4,0.1-0.9,0.3-1.4,0.4c-0.5,0.1-1,0.2-1.4,0.2l-0.3,1.6c0,0,0.4-0.2,0.9-0.6s1.1-0.6,1.4-0.6c0.2,0,0.4,0.1,0.5,0.2
			L161.5,82.7z M162.6,87.8c-0.1,0.1-0.3,0.1-0.4,0.1c-0.4,0-0.6-0.3-0.9-0.8c-0.2-0.5-0.4-1.1-0.4-1.6c0.1,0,0.2,0,0.2,0
			c0.2,0,0.4,0.1,0.7,0.3c0.3,0.2,0.5,0.3,0.5,0.3c0.1,0,0.3-0.1,0.4-0.2c0.1-0.1,0.3-0.3,0.4-0.7c0.2,0.2,0.3,0.5,0.3,0.8
			c0,0.3-0.1,0.6-0.2,0.9S162.9,87.6,162.6,87.8z M165.8,78.6c0.7,0,1.3-0.1,2-0.3c0.7-0.2,1.3-0.4,1.8-0.7c0.5-0.3,0.9-0.4,1.1-0.4
			c0.4,0,0.8,0.1,1.2,0.3c0.4,0.2,0.6,0.5,0.6,0.7c0,0.5-0.3,1.1-0.9,1.8c-0.6,0.7-1.3,1.3-1.9,2c0.7,0.6,1.1,1.3,1.4,2
			c0.3,0.7,0.5,1.4,0.5,2.2c0,1.1-0.1,2.2-0.2,3.1c-0.1,0.9-0.4,1.4-0.8,1.4c-0.5,0-1-0.3-1.5-0.8c-0.6-0.5-1-1.1-1.3-1.8
			c0,2,0,3.4-0.1,4.2c-0.1,0.8-0.3,1.4-0.5,1.8c-0.3-0.4-0.5-0.9-0.5-1.5c-0.1-0.6-0.1-1.4-0.1-2.6c-0.1-0.3-0.1-0.7-0.1-1.3
			c0-0.4,0-1.2,0.1-2.2c0-1.1,0.1-1.9,0.1-2.5c0-1,0-1.7-0.1-2.3s-0.3-1-0.5-1.2c0.2,0,0.3,0,0.5,0s0.3,0,0.4,0
			c0.4,0,0.6,0.1,0.8,0.2c0.1,0.2,0.2,0.5,0.2,1v5.1c0.5,0.5,1,0.9,1.4,1.2c0.4,0.3,0.8,0.4,1.1,0.4c0.1-0.7,0.2-1.3,0.2-1.8
			c0-1-0.2-1.8-0.6-2.5c-0.5-0.6-1-1.2-1.4-1.8c0-0.1,0.3-0.7,0.8-1.8c0.5-1.1,0.8-1.6,0.8-1.7c-0.1,0.1-0.4,0.2-0.8,0.3
			s-0.9,0.1-1.4,0.1s-0.9-0.1-1.2-0.2C166.1,79.1,165.9,78.9,165.8,78.6z"/>
	</g>
	<g>
		<path d="M93.9,66c0.2,0,0.4,0.1,0.5,0.3c0.2,0.2,0.2,0.4,0.2,0.6c-0.2,0.6-0.4,1.2-0.7,1.8s-0.6,1.1-1,1.6s-0.8,0.8-1.3,0.9
			c0.3-0.4,0.6-0.9,0.9-1.5c0.3-0.6,0.6-1.1,0.9-1.7s0.4-1.1,0.4-1.5C94,66.2,94,66.1,93.9,66z M94.1,65.1c0.4,0,0.9-0.1,1.3-0.3
			c0.4-0.2,0.9-0.4,1.3-0.5c0.4-0.2,0.7-0.2,1-0.2c0.1,0,0.2,0,0.2,0c0.2,0,0.4,0,0.6,0.1c0.1,0.1,0.2,0.2,0.2,0.3
			c0,0.1-0.1,0.3-0.3,0.4c-0.6,0-1.2,0.1-1.9,0.2s-1.3,0.3-1.9,0.4C94.3,65.4,94.1,65.3,94.1,65.1z M95.6,65.4
			c0.4,0,0.6,0.1,0.8,0.3s0.2,0.4,0.2,0.7c0,0.1,0,0.2,0,0.2c0.3-0.2,0.6-0.3,1-0.3c0.1,0,0.3,0,0.4,0.1c0.1,0,0.2,0.1,0.2,0.2
			c0,0.1,0,0.1,0,0.1c0,0,0,0,0,0c0,0.2-0.2,0.3-0.7,0.3c-0.5,0-0.8,0.1-1,0.2c0,0.2-0.1,0.4-0.2,0.7s-0.2,0.5-0.3,0.5
			c-0.1,0.1-0.2,0.2-0.5,0.3C95.1,68.8,95,69,95,69.2c0,0,0.1,0.2,0.4,0.6c0.3,0.4,0.4,0.6,0.4,0.8c0,0.1,0,0.1-0.1,0.2
			c-0.3,0-0.5-0.1-0.6-0.4c-0.1-0.3-0.3-0.6-0.5-1.1c0-0.2,0.1-0.4,0.4-0.6c0.2-0.1,0.4-0.2,0.5-0.4c0.1-0.2,0.1-0.5,0.2-0.7
			c0-0.3,0.1-0.5,0.1-0.7c0-0.3,0-0.5-0.1-0.7C95.7,65.9,95.6,65.6,95.6,65.4z M95.9,63.9c0-0.1-0.1-0.2-0.5-0.4
			c-0.4-0.1-0.6-0.3-0.6-0.4c0.2-0.1,0.4-0.2,0.6-0.2c0.2,0,0.3,0,0.4,0.1c0.1,0.1,0.3,0.1,0.4,0.2c0.1,0.1,0.2,0.3,0.2,0.4
			c0,0.2-0.1,0.3-0.4,0.3C96.1,63.9,96,63.9,95.9,63.9z M95.4,69.3c0-0.3,0.4-0.6,0.9-0.9s1.1-0.5,1.5-0.5c0.2,0,0.4,0,0.5,0.1
			c0.1,0.1,0.2,0.1,0.2,0.2s0,0.2,0,0.2c0,0.2-0.2,0.5-0.5,0.8s-0.5,0.5-0.6,0.6c0.3,0.1,0.5,0.1,0.5,0.2c0.1,0.1,0.1,0.2,0.1,0.4
			c0,0,0,0.1-0.1,0.1c-0.1,0-0.1,0-0.3,0c-0.3,0-0.6-0.1-0.8-0.2s-0.4-0.3-0.4-0.5c0,0,0-0.1,0-0.1c0-0.1,0.1-0.3,0.4-0.6
			c0.2-0.2,0.4-0.4,0.4-0.5c-0.5,0.1-1.1,0.2-1.7,0.5C95.6,69.3,95.5,69.3,95.4,69.3z"/>
		<path d="M103.4,66.6c0.4-0.3,0.8-0.5,1.2-0.8c0.4-0.3,0.8-0.4,1-0.4c0.2,0,0.4,0,0.6,0c0.1,0,0.2,0.1,0.2,0.3c0,0.2,0,0.4-0.1,0.5
			s-0.2,0.2-0.5,0.3v0.4c0.1-0.1,0.2-0.1,0.3-0.1c0.1,0,0.2-0.1,0.3-0.1c0.1,0,0.3,0,0.3,0.1c0.1,0.1,0.2,0.2,0.2,0.4
			c-0.1,0.5-0.3,0.8-0.4,1c-0.2,0.2-0.4,0.5-0.8,0.8v0.6c0.3-0.1,0.7-0.1,1.1-0.2s0.7-0.1,1.1-0.1c0.2,0,0.5,0.1,0.9,0.3
			c0.3,0.2,0.5,0.4,0.5,0.6c0,0.1-0.1,0.1-0.2,0.2c-0.1,0.1-0.2,0.1-0.3,0.1c-0.3-0.1-0.7-0.1-1.1-0.2s-1-0.1-1.5-0.1
			c-0.6,0-1.1,0-1.5,0.1s-0.8,0.1-1.2,0.2c-0.4,0.1-0.9,0.2-1.6,0.5c-0.1,0-0.1,0-0.2,0c-0.1,0-0.2-0.1-0.2-0.2c0-0.1,0-0.1,0.1-0.1
			c0.2-0.1,0.5-0.2,0.9-0.4c0.4-0.1,0.9-0.3,1.5-0.4l1.2-1.2v-0.9c-0.4,0.2-0.8,0.4-1.1,0.7c-0.4,0.3-0.6,0.5-0.7,0.5
			c-0.1,0-0.1,0-0.2-0.1c-0.1-0.1-0.1-0.1-0.1-0.2c0-0.1,0.3-0.4,0.8-0.8s1-0.7,1.3-0.9v-0.5c-0.1,0-0.4,0.1-0.7,0.2
			S104,67,103.8,67c-0.1,0-0.3,0-0.3-0.1C103.4,66.8,103.4,66.7,103.4,66.6z M105.4,69.3l-0.7,0.5l0.7-0.2V69.3z M104.9,63.2
			c0.2-0.1,0.5-0.1,0.7-0.1c0.3,0,0.6,0.1,0.8,0.2c0.2,0.2,0.3,0.4,0.4,0.8c-0.1,0.1-0.3,0.1-0.6,0.1s-0.4,0-0.7,0.1
			c0-0.2-0.1-0.3-0.3-0.5C105,63.6,104.9,63.4,104.9,63.2z M106.3,67.5c-0.1,0-0.2,0-0.3,0c0,0-0.1,0.1-0.2,0.1v0.7L106.3,67.5z"/>
	</g>
	<line class="st4" x1="17.3" y1="30.3" x2="263.7" y2="30.3"/>
	<g>
		<path class="st5" d="M146.1,123.7v4.3c0,0.1,0,0.2-0.1,0.2c-0.3,0.1-0.5,0.2-0.6,0.1c-0.1,0-0.1-0.1-0.1-0.2v-3.4
			c-0.2,0.3-0.5,0.6-0.7,0.9c-0.2,0.2-0.3,0.2-0.3,0.1c0.1-0.1,0.2-0.3,0.3-0.5c0.3-0.5,0.6-1.1,0.8-1.9c0.2-0.7,0.4-1.5,0.5-2.3
			l1,0.4c0.1,0.1,0.2,0.2,0,0.3l-0.2,0.1c-0.1,0.3-0.3,0.8-0.6,1.3l0.2,0.1c0.1,0.1,0.1,0.2,0,0.3L146.1,123.7z M150.9,126.9
			l0.8,0.6c0.1,0.1,0.1,0.2-0.1,0.3h-5.1l-0.1-0.2h2v-2.2h-1.7l-0.1-0.2h1.8v-2h-1.8l-0.1-0.2h3.8l0.5-0.7l0.8,0.7
			c0.1,0.1,0.1,0.2-0.1,0.3h-2.2v2h0.8l0.5-0.7l0.7,0.6c0.1,0.1,0.1,0.2-0.1,0.3h-1.9v2.2h1.1L150.9,126.9z M147.7,121.2
			c0.5,0.1,0.9,0.2,1.1,0.3c0.4,0.2,0.6,0.5,0.6,0.8c0,0.2-0.1,0.4-0.2,0.4c-0.3,0.2-0.5,0.1-0.7-0.1c-0.2-0.5-0.3-0.8-0.3-0.8
			c0-0.1-0.1-0.1-0.2-0.2c-0.1-0.1-0.2-0.2-0.4-0.3C147.5,121.2,147.6,121.2,147.7,121.2z"/>
		<path class="st5" d="M153.8,125c0,0.8-0.1,1.3-0.2,1.6c-0.2,0.5-0.5,1-0.9,1.5c-0.1,0.2-0.2,0.3-0.3,0.3c-0.1-0.1-0.1-0.2,0.1-0.5
			c0.2-0.4,0.3-1,0.4-1.8c0.1-0.9,0.1-2,0-3.3l1,0.5h1l0.3-0.5l0.8,0.7c0.1,0.1,0.1,0.2,0,0.3l-0.2,0.1v1.6c0,0.1-0.1,0.2-0.3,0.2
			c-0.1,0-0.2,0-0.3,0.1c-0.1,0-0.2-0.1-0.2-0.2V125H153.8z M155.3,121.2l0.7,0.6c0.1,0.1,0.1,0.2-0.1,0.3h-3.5l-0.1-0.2h2.5
			L155.3,121.2z M153.8,123.5v1.3h1.2v-1.3H153.8z M157.1,124.2c0,0.4-0.1,0.8-0.1,1.1c-0.1,0.6-0.3,1.2-0.5,1.5
			c-0.3,0.4-0.6,0.7-0.9,1c-0.3,0.2-0.5,0.3-0.7,0.4c-0.3,0.1-0.3,0-0.1-0.2c0.1-0.1,0.1-0.1,0.2-0.1c0.3-0.3,0.6-0.7,0.9-1.2
			c0.3-0.5,0.4-1.3,0.4-2.3c0-0.8,0-1.6-0.1-2.7l0.9,0.4c0.3-0.2,0.6-0.3,0.8-0.4c0.1-0.1,0.4-0.3,0.7-0.6l0.8,0.7
			c0.2,0.2,0.2,0.3-0.1,0.3l-0.4,0c0,0-0.2,0-0.5,0.1c-0.5,0.1-0.9,0.1-1.2,0.2c0,0.5,0,1,0,1.6h1.3l0.5-0.7l0.7,0.6
			c0.1,0.1,0.1,0.2-0.1,0.3h-1v3.7c0,0.2-0.1,0.3-0.4,0.3c-0.3,0-0.4,0-0.4-0.2v-3.9H157.1z"/>
		<path class="st5" d="M166.3,126.4c-0.5,0.5-1,0.9-1.5,1.2c-0.4,0.3-0.9,0.5-1.5,0.7c-0.1,0-0.2,0-0.1-0.1c0.7-0.4,1.3-0.9,1.8-1.5
			c0.4-0.4,0.6-0.8,0.9-1.2h-0.9v0.3c0,0.1-0.1,0.2-0.3,0.3c-0.4,0.1-0.6,0-0.6-0.2v-3.1l0.9,0.4h1.3v-0.8h-3.1l-0.1-0.2h3.2V121
			l1,0.1c0.3,0.1,0.3,0.2,0.1,0.4l-0.2,0.1v0.7h1.9l0.5-0.7l0.8,0.6c0.2,0.1,0.1,0.2-0.1,0.3h-3.1v0.8h1.3l0.3-0.5l0.8,0.7
			c0.1,0.1,0.1,0.2-0.1,0.3l-0.1,0.1v1.8c0,0.1,0,0.2-0.1,0.2c-0.1,0.1-0.2,0.1-0.3,0.1c-0.3,0-0.4,0-0.4-0.2v-0.3h-1.2
			c0.2,0.3,0.5,0.6,0.9,0.8c0.3,0.2,0.6,0.4,1.1,0.6c0.5,0.2,1,0.4,1.3,0.5c-0.4,0.2-0.7,0.5-0.9,0.8c-0.6-0.3-1.2-0.7-1.6-1.2
			c-0.3-0.3-0.6-0.7-0.9-1.3v2.2c0,0.2-0.2,0.3-0.5,0.4c-0.1,0-0.1,0-0.2,0c-0.1,0-0.1-0.1-0.1-0.3V126.4z M164.9,123.4v0.8h1.3
			v-0.8H164.9z M164.9,124.4v0.8h1.3v-0.8H164.9z M167.1,123.4v0.8h1.3v-0.8H167.1z M167.1,124.4v0.8h1.3v-0.8H167.1z"/>
		<path class="st5" d="M173.1,125v0.3c0,0.1-0.1,0.1-0.2,0.1l0.8,0.5c0.2,0.1,0.2,0.3-0.1,0.3l-0.3,0.1c-0.6,0.5-1,0.8-1.3,1
			c-0.4,0.3-0.8,0.4-0.9,0.5c-0.1,0-0.1-0.1,0.1-0.3c0.8-0.7,1.3-1.4,1.6-2.1c-0.2,0-0.4,0.1-0.4,0c-0.1,0-0.1-0.1-0.1-0.2v-2.4
			l1,0.4h2.9l0.3-0.5l0.8,0.7c0.1,0.1,0.1,0.2-0.1,0.3l-0.2,0.1v1.3c0,0.2-0.2,0.3-0.7,0.3c-0.1,0-0.2-0.1-0.2-0.2V125h-1.2v2.6
			c0,0.2-0.2,0.4-0.6,0.5c-0.4,0.2-0.6,0.1-0.5-0.1c0-0.1,0-0.2,0-0.3c0,0-0.1-0.1-0.3-0.2l-0.6-0.2c-0.1,0-0.2-0.1-0.1-0.1
			c0,0,0.2-0.1,0.6,0c0.4,0,0.6,0,0.7,0c0,0,0.1-0.1,0.1-0.2v-2H173.1z M177,122.3l0.5-0.7l0.8,0.7c0.1,0.1,0.1,0.2-0.1,0.3h-7.1
			l-0.1-0.2h3.2V121l1,0.1c0.2,0.1,0.2,0.2,0.1,0.3l-0.2,0.1v0.7H177z M173.1,123.6v1.3h3.1v-1.3H173.1z M177.7,127.4
			c-0.2,0.4-0.5,0.4-0.8,0.1c-0.1-0.1-0.2-0.3-0.3-0.6c-0.3-0.5-0.6-0.8-1-1.1c-0.3-0.2-0.4-0.3-0.3-0.3c0.3,0,0.8,0.1,1.3,0.4
			c0.4,0.2,0.8,0.5,1,0.8C177.8,127,177.8,127.2,177.7,127.4z"/>
		<path class="st5" d="M179.9,125.7c-0.5,0.3-0.8,0.5-0.9,0.5c-0.2,0-0.2,0-0.1-0.2c0.4-0.3,0.8-0.5,1-0.8v-0.7l0.5,0.2
			c0.3-0.3,0.5-0.6,0.7-0.8H179l-0.1-0.2h1.5v-1.2h-1.2l-0.1-0.2h1.3V121l0.9,0.1c0.2,0.1,0.3,0.2,0.1,0.3l-0.1,0.1v0.8h0.2l0.3-0.4
			l0.5,0.4c0.2-0.3,0.4-0.6,0.5-0.9l0.6,0.5c0.2,0.2,0.2,0.3-0.1,0.4l-0.1,0c-0.2,0.3-0.6,0.8-1.1,1.4h0.3l0.4-0.6l0.7,0.6
			c0.1,0.1,0.1,0.2-0.1,0.3h-1.6c-0.3,0.3-0.6,0.6-1,0.9h1.1l0.3-0.4l0.8,0.6c0.1,0.1,0.1,0.2-0.1,0.3l-0.1,0.1v2.3
			c0,0.1-0.1,0.2-0.2,0.2l-0.3,0.1c-0.1,0-0.2,0-0.3,0c-0.1,0-0.1-0.1-0.1-0.2v-0.2h-1.4v0.3c0,0.1,0,0.1-0.1,0.2
			c-0.1,0-0.2,0.1-0.4,0.1c-0.2,0-0.3,0-0.3-0.1V125.7z M180.7,126.1h1.4v-1h-1.4V126.1z M180.7,127.4h1.4v-1.1h-1.4V127.4z
			 M181.3,122.5v1.2h0.1c0.2-0.3,0.5-0.7,0.8-1.2H181.3z M185.3,121.6l0.3-0.5l0.6,0.7c0.2,0.2,0.2,0.3-0.1,0.4l-0.2,0l-1.1,1.5
			l0.3,0.3c0.6,0.5,0.9,1,1,1.6c0,0.3,0,0.5-0.1,0.8c-0.1,0.3-0.3,0.5-0.5,0.7c-0.1,0-0.2,0.1-0.3,0.1c-0.1,0-0.2,0-0.2-0.1v-0.1
			c0-0.1-0.1-0.2-0.2-0.3c-0.1-0.1-0.3-0.2-0.6-0.3v1.5c0,0.2-0.1,0.3-0.2,0.3l-0.2,0c-0.1,0-0.2,0-0.3,0c-0.1,0-0.1-0.1-0.1-0.2
			v-6.9l1,0.5H185.3z M184.4,126.2c0.3,0,0.4,0.1,0.5,0.1c0.2,0,0.4,0,0.4-0.1c0.1-0.1,0.2-0.3,0.2-0.6c0-0.2-0.1-0.4-0.1-0.6
			c-0.1-0.3-0.4-0.7-0.8-1.2l0.8-2h-1V126.2z"/>
		<path class="st5" d="M186.9,127.4c0.5-0.2,0.9-0.3,1.2-0.5v-2.3h-1l-0.1-0.2h1l0.3-0.5l0.8,0.7c0.1,0.1,0.1,0.2-0.1,0.3l-0.2,0.1
			v1.9c0.3,0.2,0.6,0.3,1,0.4c0.3,0.1,0.6,0.1,1.1,0.1c0.5,0,1.1,0,1.9,0c0.6,0,1.2-0.1,1.7-0.1c-0.3,0.3-0.4,0.6-0.5,1
			c-0.7,0-1.3,0-1.8,0c-0.9,0-1.5-0.1-1.9-0.2c-0.7-0.2-1.3-0.5-1.7-1.1c-0.3,0.3-0.5,0.6-0.7,0.8l-0.1,0.3
			c-0.1,0.3-0.2,0.3-0.3,0.1L186.9,127.4z M187.3,121.4c-0.1-0.1-0.1-0.1,0.1-0.1c0.3,0,0.6,0.1,0.9,0.2c0.3,0.1,0.5,0.3,0.6,0.6
			c0.1,0.2,0.1,0.3,0,0.5c-0.1,0.4-0.4,0.4-0.7,0.2c-0.1-0.1-0.1-0.2-0.2-0.4C187.8,121.9,187.6,121.6,187.3,121.4z M189.1,122.6
			l-0.1-0.2h2.9c0.1-0.3,0.2-0.5,0.3-0.8c0.1-0.2,0.1-0.4,0.2-0.7l0.8,0.4c0.1,0.1,0.1,0.2,0,0.3l-0.1,0.1c-0.3,0.3-0.5,0.5-0.8,0.7
			h0.8l0.5-0.7l0.7,0.6c0.1,0.1,0.1,0.2-0.1,0.3h-2.1l-0.7,0.8h1.2l0.3-0.5l0.8,0.7c0.1,0.1,0.1,0.2,0,0.3l-0.1,0.1v2.8
			c0,0.1-0.1,0.2-0.2,0.3c-0.1,0-0.2,0.1-0.3,0.1c-0.3,0-0.4,0-0.4-0.1v-0.3h-2v0.2c0,0.1,0,0.1-0.1,0.2c-0.1,0-0.3,0.1-0.4,0.1
			c-0.2,0-0.3,0-0.3-0.1V123l1,0.4h0.2c0.1-0.4,0.1-0.6,0.1-0.8H189.1z M189.9,121.1c-0.1-0.1-0.1-0.1,0-0.2c0.1,0,0.2,0,0.5,0.1
			c0.5,0.1,0.7,0.3,0.8,0.6c0.1,0.3,0,0.5-0.3,0.7c-0.3,0.1-0.4,0-0.6-0.4c-0.1-0.1-0.1-0.3-0.2-0.4
			C190.2,121.4,190,121.3,189.9,121.1z M190.7,123.6v0.8h2v-0.8H190.7z M190.7,124.7v0.8h2v-0.8H190.7z M190.7,126.5h2v-0.8h-2
			V126.5z"/>
		<path class="st5" d="M198.8,123.4c-0.5,0.5-1,0.9-1.4,1.2c0.2,0.2,0.3,0.3,0.4,0.4c0.1,0.2,0.1,0.4,0,0.6
			c-0.1,0.1-0.2,0.2-0.3,0.3c-0.2,0.1-0.4,0-0.5-0.2c-0.1-0.1-0.2-0.4-0.3-0.8c-0.1-0.2-0.2-0.4-0.5-0.6c-0.1-0.1-0.2-0.1-0.2-0.2
			c0-0.1,0.1-0.1,0.3,0c0.3,0,0.6,0.2,0.9,0.3c0.4-0.5,0.6-1.1,0.8-1.6h-2.6l-0.1-0.2h2.9v-1.5l0.9,0.1c0.5,0.1,0.5,0.2,0.1,0.4
			l-0.1,0v0.9h1.8l0.6-0.7l0.8,0.6c0.1,0.1,0.1,0.2-0.1,0.3h-3.4l0.3,0.2c0.2,0.1,0.1,0.2-0.1,0.3L198.8,123.4z M196.4,127.9
			l-0.1,0.1c-0.1,0.1-0.3,0.1-0.4,0l-0.6-1h2c1-1,1.9-2.1,2.6-3.3l1,0.7c0.2,0.1,0.2,0.2-0.1,0.3h-0.2c-0.4,0.4-0.8,0.8-1.2,1.1
			c-0.7,0.6-1.3,1-1.6,1.3c0.5,0,1,0,1.5-0.1l1.2-0.1c-0.2-0.3-0.4-0.6-0.7-0.8c-0.1-0.1-0.1-0.1,0.1-0.1c0.9,0.2,1.5,0.5,1.8,1.1
			c0.1,0.2,0.1,0.4,0.1,0.6c0,0.1-0.1,0.3-0.2,0.4c-0.3,0.2-0.6,0.1-0.8-0.3l-0.2-0.6c-1.4,0.3-2.7,0.5-3.8,0.7L196.4,127.9z"/>
		<path class="st5" d="M206.9,124.1c0,0.7-0.1,1.3-0.2,1.7c-0.2,0.7-0.6,1.3-1.1,1.8c-0.5,0.5-0.8,0.7-0.9,0.6c-0.1,0,0-0.1,0.1-0.2
			c0.2-0.3,0.4-0.5,0.6-0.8c0.2-0.3,0.4-0.7,0.5-1.2c-0.4,0.2-0.7,0.4-1,0.5c-0.4,0.2-0.8,0.4-1.1,0.5l-0.1,0.2
			c-0.1,0.2-0.2,0.2-0.4,0l-0.5-0.8c0.4-0.1,0.7-0.1,1.1-0.2v-2.6h-1l-0.1-0.2h1.1v-2.3l0.9,0.1c0.2,0.1,0.2,0.2,0.1,0.4l-0.1,0.1
			v1.7h0.2l0.4-0.7l0.5,0.6c0.1,0.1,0.1,0.2,0,0.3h-1v2.4c0.3-0.1,0.6-0.2,1.1-0.3c0.1-0.5,0.1-0.9,0.1-1.2c0-0.7,0-1.6,0-2.6v-0.3
			l1,0.4h2.1l0.5-0.7l0.7,0.6c0.1,0.1,0.1,0.2-0.1,0.3h-3.4v1.6h1.9l0.3-0.5l0.6,0.6c0.2,0.2,0.1,0.3-0.1,0.4l-0.2,0.1
			c-0.1,0.4-0.3,0.8-0.4,1c-0.1,0.3-0.3,0.6-0.5,1c0.5,0.4,1.1,0.7,1.8,1c-0.4,0.1-0.7,0.4-0.8,0.7c-0.3-0.2-0.6-0.4-0.8-0.5
			c-0.3-0.2-0.5-0.5-0.7-0.7c-0.2,0.2-0.4,0.4-0.6,0.5c-0.3,0.2-0.6,0.4-1.1,0.6c-0.1,0-0.3,0.1-0.4,0.2c-0.4,0.1-0.5,0.1-0.3,0
			c0.2-0.1,0.4-0.3,0.6-0.4c0.5-0.3,1-0.8,1.5-1.4c-0.2-0.3-0.3-0.6-0.4-0.9c-0.1-0.4-0.2-0.8-0.3-1.4H206.9z M207.3,124.1
			c0.1,0.7,0.4,1.3,0.8,1.8c0.3-0.6,0.5-1.2,0.7-1.8H207.3z"/>
		<path class="st5" d="M215.3,124.8c-0.2,0.2-0.3,0.4-0.5,0.4c-0.3,0.1-0.6,0.1-0.9-0.1c-0.5-0.3-0.7-0.8-0.7-1.5
			c0-0.6,0.2-1.2,0.6-1.6c0.3-0.3,0.6-0.4,0.9-0.4c0.4,0,0.7,0.1,0.9,0.4c0.4,0.4,0.6,1.1,0.6,1.9c0,0.9-0.1,1.5-0.2,2
			c-0.1,0.5-0.4,0.8-0.6,1.1c-0.3,0.3-0.7,0.5-1.1,0.5c-0.4,0-0.6-0.1-0.8-0.3s-0.3-0.4-0.3-0.6c0-0.3,0.1-0.4,0.3-0.5
			c0.2-0.1,0.4-0.1,0.5,0.1c0.1,0.1,0.1,0.2,0.1,0.4c0,0.3-0.1,0.4-0.3,0.5c0,0.1,0.1,0.1,0.2,0.2c0.2,0.1,0.5,0.1,0.7-0.1
			c0.3-0.2,0.5-0.6,0.6-1.2C215.3,125.6,215.3,125.2,215.3,124.8z M215.3,123.4c0-0.5-0.1-0.9-0.2-1.2c-0.1-0.3-0.3-0.3-0.5-0.3
			c-0.3,0.1-0.4,0.3-0.5,0.8c0,0.3-0.1,0.7,0,1c0,0.4,0.1,0.8,0.2,0.9c0.2,0.3,0.4,0.4,0.8,0.2c0.2-0.1,0.3-0.4,0.3-0.9V123.4z"/>
		<path class="st5" d="M217.3,124.4h3.2v0.5h-3.2V124.4z"/>
		<path class="st5" d="M224.4,127.6h-2.5v-0.3h0.1c0.2,0,0.4-0.1,0.5-0.2s0.2-0.3,0.2-0.6v-3.5c0-0.2-0.1-0.4-0.2-0.5
			c-0.1-0.1-0.3-0.2-0.6-0.2v-0.3c0.2,0,0.5,0,0.8-0.1c0.3-0.1,0.5-0.2,0.8-0.4h0.2v4.9c0,0.3,0.1,0.5,0.2,0.6
			c0.1,0.1,0.2,0.2,0.4,0.2h0.2V127.6z"/>
		<path class="st5" d="M228.6,127.6h-2.5v-0.3h0.1c0.2,0,0.4-0.1,0.5-0.2s0.2-0.3,0.2-0.6v-3.5c0-0.2-0.1-0.4-0.2-0.5
			c-0.1-0.1-0.3-0.2-0.6-0.2v-0.3c0.2,0,0.5,0,0.8-0.1c0.3-0.1,0.5-0.2,0.8-0.4h0.2v4.9c0,0.3,0.1,0.5,0.2,0.6
			c0.1,0.1,0.2,0.2,0.4,0.2h0.2V127.6z"/>
		<path class="st5" d="M229.8,124.4h3.2v0.5h-3.2V124.4z"/>
		<path class="st5" d="M236.9,127.6h-2.5v-0.3h0.1c0.2,0,0.4-0.1,0.5-0.2s0.2-0.3,0.2-0.6v-3.5c0-0.2-0.1-0.4-0.2-0.5
			c-0.1-0.1-0.3-0.2-0.6-0.2v-0.3c0.2,0,0.5,0,0.8-0.1c0.3-0.1,0.5-0.2,0.8-0.4h0.2v4.9c0,0.3,0.1,0.5,0.2,0.6
			c0.1,0.1,0.2,0.2,0.4,0.2h0.2V127.6z"/>
		<path class="st5" d="M240.3,124.8c-0.2,0.2-0.3,0.4-0.5,0.4c-0.3,0.1-0.6,0.1-0.9-0.1c-0.5-0.3-0.7-0.8-0.7-1.5
			c0-0.6,0.2-1.2,0.6-1.6c0.3-0.3,0.6-0.4,0.9-0.4c0.4,0,0.7,0.1,0.9,0.4c0.4,0.4,0.6,1.1,0.6,1.9c0,0.9-0.1,1.5-0.2,2
			c-0.1,0.5-0.4,0.8-0.6,1.1c-0.3,0.3-0.7,0.5-1.1,0.5c-0.4,0-0.6-0.1-0.8-0.3s-0.3-0.4-0.3-0.6c0-0.3,0.1-0.4,0.3-0.5
			c0.2-0.1,0.4-0.1,0.5,0.1c0.1,0.1,0.1,0.2,0.1,0.4c0,0.3-0.1,0.4-0.3,0.5c0,0.1,0.1,0.1,0.2,0.2c0.2,0.1,0.5,0.1,0.7-0.1
			c0.3-0.2,0.5-0.6,0.6-1.2C240.3,125.6,240.3,125.2,240.3,124.8z M240.3,123.4c0-0.5-0.1-0.9-0.2-1.2c-0.1-0.3-0.3-0.3-0.5-0.3
			c-0.3,0.1-0.4,0.3-0.5,0.8c0,0.3-0.1,0.7,0,1c0,0.4,0.1,0.8,0.2,0.9c0.2,0.3,0.4,0.4,0.8,0.2c0.2-0.1,0.3-0.4,0.3-0.9V123.4z"/>
		<path class="st5" d="M144.2,141.3l1.1-0.4v-2.3h-1l-0.1-0.2h1l0.3-0.5l0.9,0.8c0.1,0.1,0.1,0.2-0.1,0.3l-0.2,0.1v1.7
			c0.3,0.2,0.6,0.4,1,0.5c0.3,0.1,0.6,0.1,1,0.1c0.6,0,1.2,0,1.7,0c1.2-0.1,1.9-0.1,2.1-0.1c-0.3,0.3-0.4,0.6-0.5,0.9
			c-0.9,0-1.6,0-2.1,0c-0.6,0-1,0-1.2-0.1c-0.4,0-0.7-0.1-1-0.3c-0.5-0.2-0.9-0.5-1.2-0.9l-0.7,0.8l0,0.2c0,0.2-0.2,0.3-0.3,0.1
			L144.2,141.3z M144.6,135.4c-0.1-0.1-0.1-0.1,0.2-0.1c0.6,0.1,1,0.3,1.2,0.6c0.2,0.2,0.2,0.4,0.2,0.6c0,0.2-0.1,0.3-0.4,0.3
			c-0.2,0.1-0.4,0-0.5-0.2c0-0.1-0.1-0.2-0.1-0.3C145.1,135.9,144.9,135.6,144.6,135.4z M146.3,140.2h2.1v-0.8h-0.9v0.3
			c0,0.1,0,0.1-0.1,0.2c-0.2,0.1-0.4,0.1-0.6,0.1c-0.1,0-0.1-0.1-0.1-0.2v-3.1l0.9,0.4h0.8v-0.7h-2l-0.1-0.2h2.1V135l1,0.1
			c0.2,0.1,0.3,0.2,0.1,0.4l-0.2,0.1v0.6h1.2l0.5-0.7l0.8,0.6c0.1,0.1,0.1,0.2-0.1,0.3h-2.4v0.7h0.9l0.3-0.5l0.8,0.7
			c0.1,0.1,0.1,0.2-0.1,0.3l-0.1,0.1v1.8l0.7,0.6c0.1,0.1,0.1,0.2,0,0.3h-2.4v0.7c0,0.1,0,0.1-0.1,0.2c-0.1,0-0.3,0.1-0.5,0.1
			c-0.1,0-0.2,0-0.2-0.1v-0.8h-2L146.3,140.2z M147.5,137.3v0.8h0.9v-0.8H147.5z M147.5,138.3v0.8h0.9v-0.8H147.5z M149.2,137.3v0.8
			h1v-0.8H149.2z M149.2,139.1h1v-0.8h-1V139.1z M149.2,139.3v0.8h1.3l0.5-0.6c-0.4,0.1-0.6,0.1-0.7,0.1c-0.1,0-0.1,0-0.1-0.1v-0.3
			H149.2z"/>
		<path class="st5" d="M153.6,138.9c-0.2,0.1-0.4,0.1-0.6,0.2l-0.1,0.1c-0.1,0.1-0.2,0.1-0.3,0l-0.4-0.8c0.4,0,0.7,0,1,0
			c0.5-0.7,0.9-1.5,1.4-2.3l0.7,0.6c0.1,0.1,0.1,0.2-0.1,0.3l-0.1,0c-0.7,0.7-1.1,1.1-1.3,1.2l-0.3,0.3c0.4,0,0.8,0,1.1-0.1
			c0-0.1-0.1-0.2-0.2-0.3c-0.3-0.2-0.2-0.3,0.1-0.2c0.5,0.2,0.8,0.5,0.8,0.9c0,0.3-0.1,0.4-0.3,0.5c-0.2,0-0.3-0.1-0.3-0.3l0-0.3
			l-0.4,0.1v3.3c0,0.1-0.1,0.2-0.4,0.3c-0.2,0-0.3,0-0.3-0.2V138.9z M153.3,139.9c-0.1,0.5-0.2,0.8-0.4,1.1
			c-0.1,0.3-0.3,0.5-0.4,0.6c-0.1,0.2-0.2,0.1-0.2-0.1c0.1-0.3,0.1-0.7,0.2-1c0-0.5,0.1-0.9,0.1-1.2l0.7,0.2
			C153.5,139.6,153.5,139.7,153.3,139.9L153.3,139.9z M154.3,135.8c-0.4,0.3-0.7,0.6-0.9,0.8c0.2,0.3,0.3,0.5,0.2,0.8
			c0,0.2-0.2,0.3-0.3,0.3c-0.2,0-0.3-0.1-0.4-0.3c0-0.2-0.1-0.4-0.1-0.5c0-0.2-0.1-0.3-0.3-0.5c-0.1-0.2-0.2-0.3-0.1-0.3
			c0.2,0,0.4,0.1,0.7,0.2c0.2-0.4,0.4-0.9,0.6-1.5l0.8,0.5c0.1,0.1,0.1,0.2-0.1,0.3L154.3,135.8z M155.9,139.3
			c-0.3,0.2-0.6,0.3-0.8,0.4c0.1,0.2,0.2,0.3,0.3,0.5c0.1,0.3,0.1,0.6-0.1,0.7c-0.3,0.2-0.5,0.1-0.6-0.3c0-0.3,0-0.5,0-0.5
			c0-0.2-0.1-0.5-0.3-0.8c0-0.1,0-0.1,0.1-0.1c0.1,0,0.3,0.2,0.5,0.3c0.2-0.1,0.4-0.3,0.7-0.5c0.4-0.3,0.9-0.8,1.4-1.4
			c-0.1-0.1-0.2-0.5-0.4-0.9c-0.1,0.1-0.2,0.3-0.4,0.4c-0.2,0.2-0.4,0.4-0.6,0.5l-0.1,0.1c-0.3,0.2-0.3,0.1-0.1-0.2
			c0.1-0.2,0.2-0.3,0.3-0.4c0.3-0.6,0.6-1.3,0.9-2.3l0.8,0.3c0.1,0.1,0.1,0.3,0,0.4l-0.1,0.1l-0.2,0.3h1l0.3-0.4l0.7,0.6
			c0.2,0.2,0.2,0.3-0.1,0.4l-0.2,0c-0.2,0.3-0.5,0.7-1,1.3c0.6,0.4,1.2,0.7,2,0.8c-0.2,0.2-0.4,0.3-0.4,0.4
			c-0.1,0.1-0.1,0.3-0.2,0.5c-0.3-0.2-0.6-0.3-0.9-0.5c-0.3-0.2-0.6-0.4-0.9-0.8c-0.5,0.4-0.9,0.8-1.2,0.9l0.4,0.3h1.4l0.2-0.3
			l0.8,0.6c0.1,0.1,0.1,0.2-0.1,0.3l-0.1,0.1v1.8c0,0.1,0,0.1-0.1,0.2c-0.2,0.1-0.3,0.1-0.5,0.1c-0.1,0-0.1,0-0.1-0.1v-0.3h-1.5v0.3
			c0,0.1-0.1,0.1-0.2,0.2c0,0-0.1,0-0.3,0.1c-0.2,0-0.3,0-0.3-0.2V139.3z M156.6,139.6v1.9h1.5v-1.9H156.6z M157,136.2
			c-0.1,0.1-0.2,0.3-0.3,0.4c0.1,0.3,0.3,0.5,0.5,0.7c0.4-0.4,0.6-0.8,0.8-1.1H157z"/>
		<path class="st5" d="M163.7,138.8c0,0.1-0.1,0.3-0.1,0.5c-0.1,0.6-0.3,1.1-0.5,1.5c-0.4,0.6-1,1-1.9,1.3c-0.5,0.2-0.8,0.2-0.9,0.2
			c-0.1,0-0.1-0.1,0-0.1c0.3-0.1,0.5-0.2,0.7-0.3c0.6-0.3,1-0.8,1.3-1.3c0.2-0.5,0.4-1,0.4-1.8h-2.2l-0.1-0.2h3.2V137h-1.3
			c-0.3,0.4-0.6,0.7-0.8,0.9c-0.3,0.3-0.4,0.4-0.5,0.3c0,0,0-0.1,0-0.2c0-0.1,0.1-0.1,0.1-0.2c0.4-0.6,0.7-1.6,1-2.8l0.9,0.4
			c0.1,0.1,0.1,0.2,0,0.3l-0.2,0.1c-0.1,0.2-0.2,0.5-0.4,0.8h1.1V135l1.1,0.1c0.2,0.1,0.2,0.2,0.1,0.4l-0.2,0.1v1.2h1.2l0.6-0.8
			l0.8,0.7c0.1,0.1,0.1,0.2-0.1,0.3h-2.5v1.6h1.8l0.6-0.8l0.8,0.7c0.1,0.1,0.1,0.2-0.1,0.3h-2.5v2c0,0.2,0,0.4,0.1,0.4
			c0.1,0,0.2,0.1,0.4,0.1h0.6c0.2,0,0.4-0.1,0.5-0.2c0.1-0.1,0.3-0.5,0.6-1.1c0.1-0.3,0.2-0.3,0.2-0.2c-0.1,0.4-0.1,0.8-0.2,1.2
			c0,0.1,0,0.1,0,0.2c0.1,0.1,0.1,0.1,0.2,0.2c0.2,0.2,0.2,0.4,0,0.5c-0.2,0.2-0.8,0.3-1.7,0.2l-0.8,0c-0.4,0-0.6-0.1-0.7-0.2
			c-0.1-0.1-0.2-0.3-0.2-0.8v-2.3H163.7z"/>
		<path class="st5" d="M175.3,141.6c-0.3,0-0.6-0.1-0.8-0.4c-0.4-0.4-0.7-1.1-0.8-2c0-0.4,0-0.8,0-1.2c0.1-0.9,0.4-1.6,0.8-2
			c0.2-0.2,0.5-0.3,0.8-0.3s0.6,0.1,0.8,0.3c0.4,0.4,0.7,1.1,0.8,2c0,0.4,0,0.8,0,1.2c-0.1,1-0.4,1.6-0.8,2
			C175.9,141.5,175.6,141.6,175.3,141.6z M175.3,141.4c0.1,0,0.2-0.1,0.3-0.2c0.3-0.3,0.4-1.1,0.4-2.6c0-1.4-0.1-2.3-0.4-2.5
			c-0.1-0.1-0.2-0.2-0.3-0.2s-0.2,0.1-0.3,0.2c-0.3,0.3-0.4,1.1-0.4,2.5c0,1.5,0.1,2.3,0.4,2.6C175.1,141.3,175.2,141.4,175.3,141.4
			z"/>
		<path class="st5" d="M178.9,138.7l-0.3-0.3c-0.3-0.3-0.4-0.7-0.4-1.1c0-0.5,0.2-0.9,0.5-1.3c0.3-0.3,0.6-0.4,0.9-0.4
			c0.4,0,0.6,0.1,0.9,0.3c0.3,0.3,0.4,0.5,0.4,0.9c0,0.4,0,0.7-0.2,0.9c-0.1,0.2-0.3,0.4-0.6,0.6l0.2,0.2c0.3,0.3,0.6,0.6,0.7,0.9
			c0.2,0.5,0.1,1-0.1,1.4c-0.3,0.5-0.8,0.8-1.5,0.7c-0.4,0-0.7-0.2-0.9-0.4c-0.3-0.3-0.4-0.6-0.4-1C178,139.5,178.3,139,178.9,138.7
			z M179.1,138.8c-0.3,0.3-0.5,0.6-0.5,0.8c-0.1,0.6,0,1.1,0.3,1.4c0.2,0.2,0.4,0.3,0.7,0.3s0.5-0.1,0.6-0.3
			c0.2-0.2,0.3-0.4,0.3-0.7c0-0.3-0.1-0.6-0.4-0.8C179.8,139.4,179.5,139.2,179.1,138.8z M179.9,138.2c0.1-0.1,0.2-0.2,0.3-0.4
			c0.1-0.2,0.2-0.5,0.2-0.8c0-0.4-0.1-0.7-0.3-0.8c-0.1-0.1-0.3-0.2-0.6-0.2c-0.2,0-0.4,0.1-0.6,0.2c-0.3,0.3-0.4,0.6-0.3,0.9
			c0.1,0.2,0.2,0.4,0.5,0.6C179.5,137.9,179.7,138,179.9,138.2z"/>
		<path class="st5" d="M183.7,141.6c-0.3,0-0.6-0.1-0.8-0.4c-0.4-0.4-0.7-1.1-0.8-2c0-0.4,0-0.8,0-1.2c0.1-0.9,0.4-1.6,0.8-2
			c0.2-0.2,0.5-0.3,0.8-0.3s0.6,0.1,0.8,0.3c0.4,0.4,0.7,1.1,0.8,2c0,0.4,0,0.8,0,1.2c-0.1,1-0.4,1.6-0.8,2
			C184.2,141.5,183.9,141.6,183.7,141.6z M183.7,141.4c0.1,0,0.2-0.1,0.3-0.2c0.3-0.3,0.4-1.1,0.4-2.6c0-1.4-0.1-2.3-0.4-2.5
			c-0.1-0.1-0.2-0.2-0.3-0.2s-0.2,0.1-0.3,0.2c-0.3,0.3-0.4,1.1-0.4,2.5c0,1.5,0.1,2.3,0.4,2.6C183.4,141.3,183.5,141.4,183.7,141.4
			z"/>
		<path class="st5" d="M186.3,138.4h3.2v0.5h-3.2V138.4z"/>
		<path class="st5" d="M193.4,141.6h-2.5v-0.3h0.1c0.2,0,0.4-0.1,0.5-0.2s0.2-0.3,0.2-0.6v-3.5c0-0.2-0.1-0.4-0.2-0.5
			c-0.1-0.1-0.3-0.2-0.6-0.2v-0.3c0.2,0,0.5,0,0.8-0.1c0.3-0.1,0.5-0.2,0.8-0.4h0.2v4.9c0,0.3,0.1,0.5,0.2,0.6
			c0.1,0.1,0.2,0.2,0.4,0.2h0.2V141.6z"/>
		<path class="st5" d="M197.5,141.6h-2.5v-0.3h0.1c0.2,0,0.4-0.1,0.5-0.2s0.2-0.3,0.2-0.6v-3.5c0-0.2-0.1-0.4-0.2-0.5
			c-0.1-0.1-0.3-0.2-0.6-0.2v-0.3c0.2,0,0.5,0,0.8-0.1c0.3-0.1,0.5-0.2,0.8-0.4h0.2v4.9c0,0.3,0.1,0.5,0.2,0.6
			c0.1,0.1,0.2,0.2,0.4,0.2h0.2V141.6z"/>
		<path class="st5" d="M201.7,141.6h-2.5v-0.3h0.1c0.2,0,0.4-0.1,0.5-0.2s0.2-0.3,0.2-0.6v-3.5c0-0.2-0.1-0.4-0.2-0.5
			c-0.1-0.1-0.3-0.2-0.6-0.2v-0.3c0.2,0,0.5,0,0.8-0.1c0.3-0.1,0.5-0.2,0.8-0.4h0.2v4.9c0,0.3,0.1,0.5,0.2,0.6
			c0.1,0.1,0.2,0.2,0.4,0.2h0.2V141.6z"/>
		<path class="st5" d="M205.8,141.6h-2.5v-0.3h0.1c0.2,0,0.4-0.1,0.5-0.2s0.2-0.3,0.2-0.6v-3.5c0-0.2-0.1-0.4-0.2-0.5
			c-0.1-0.1-0.3-0.2-0.6-0.2v-0.3c0.2,0,0.5,0,0.8-0.1c0.3-0.1,0.5-0.2,0.8-0.4h0.2v4.9c0,0.3,0.1,0.5,0.2,0.6
			c0.1,0.1,0.2,0.2,0.4,0.2h0.2V141.6z"/>
		<path class="st5" d="M207,138.4h3.2v0.5H207V138.4z"/>
		<path class="st5" d="M214.5,139.7l-0.1,1.9h-3.1v-0.3c0.1-0.2,0.2-0.3,0.4-0.5c0.4-0.5,0.8-1,1.2-1.4c0.2-0.3,0.4-0.6,0.6-0.9
			c0.1-0.4,0.2-0.7,0.2-1.1c0-0.5-0.1-0.8-0.3-1c-0.2-0.2-0.4-0.3-0.6-0.3c-0.3,0-0.5,0.1-0.7,0.3c-0.2,0.2-0.3,0.3-0.3,0.5
			c0.2,0,0.3,0,0.5,0.1c0.1,0.1,0.2,0.2,0.2,0.4c0,0.2-0.1,0.3-0.2,0.4c-0.1,0.1-0.2,0.1-0.3,0.1s-0.2,0-0.3-0.1
			c-0.1-0.1-0.2-0.3-0.2-0.6c0-0.4,0.2-0.8,0.6-1.2c0.3-0.3,0.6-0.4,1.1-0.4c0.5,0,0.8,0.1,1.1,0.4c0.3,0.3,0.4,0.7,0.4,1.2
			c0,0.5-0.2,1-0.6,1.4c-0.3,0.3-0.5,0.4-0.6,0.6c-0.5,0.4-0.9,0.9-1.3,1.3h1.7c0.2,0,0.3-0.1,0.4-0.3c0.1-0.2,0.1-0.4,0.2-0.6
			H214.5z"/>
		<path class="st5" d="M218.6,139.7l-0.1,1.9h-3.1v-0.3c0.1-0.2,0.2-0.3,0.4-0.5c0.4-0.5,0.8-1,1.2-1.4c0.2-0.3,0.4-0.6,0.6-0.9
			c0.1-0.4,0.2-0.7,0.2-1.1c0-0.5-0.1-0.8-0.3-1c-0.2-0.2-0.4-0.3-0.6-0.3c-0.3,0-0.5,0.1-0.7,0.3c-0.2,0.2-0.3,0.3-0.3,0.5
			c0.2,0,0.3,0,0.5,0.1c0.1,0.1,0.2,0.2,0.2,0.4c0,0.2-0.1,0.3-0.2,0.4c-0.1,0.1-0.2,0.1-0.3,0.1s-0.2,0-0.3-0.1
			c-0.1-0.1-0.2-0.3-0.2-0.6c0-0.4,0.2-0.8,0.6-1.2c0.3-0.3,0.6-0.4,1.1-0.4c0.5,0,0.8,0.1,1.1,0.4c0.3,0.3,0.4,0.7,0.4,1.2
			c0,0.5-0.2,1-0.6,1.4c-0.3,0.3-0.5,0.4-0.6,0.6c-0.5,0.4-0.9,0.9-1.3,1.3h1.7c0.2,0,0.3-0.1,0.4-0.3c0.1-0.2,0.1-0.4,0.2-0.6
			H218.6z"/>
		<path class="st5" d="M222.8,139.7l-0.1,1.9h-3.1v-0.3c0.1-0.2,0.2-0.3,0.4-0.5c0.4-0.5,0.8-1,1.2-1.4c0.2-0.3,0.4-0.6,0.6-0.9
			c0.1-0.4,0.2-0.7,0.2-1.1c0-0.5-0.1-0.8-0.3-1c-0.2-0.2-0.4-0.3-0.6-0.3c-0.3,0-0.5,0.1-0.7,0.3c-0.2,0.2-0.3,0.3-0.3,0.5
			c0.2,0,0.3,0,0.5,0.1c0.1,0.1,0.2,0.2,0.2,0.4c0,0.2-0.1,0.3-0.2,0.4c-0.1,0.1-0.2,0.1-0.3,0.1s-0.2,0-0.3-0.1
			c-0.1-0.1-0.2-0.3-0.2-0.6c0-0.4,0.2-0.8,0.6-1.2c0.3-0.3,0.6-0.4,1.1-0.4c0.5,0,0.8,0.1,1.1,0.4c0.3,0.3,0.4,0.7,0.4,1.2
			c0,0.5-0.2,1-0.6,1.4c-0.3,0.3-0.5,0.4-0.6,0.6c-0.5,0.4-0.9,0.9-1.3,1.3h1.7c0.2,0,0.3-0.1,0.4-0.3c0.1-0.2,0.1-0.4,0.2-0.6
			H222.8z"/>
		<path class="st5" d="M226.9,139.7l-0.1,1.9h-3.1v-0.3c0.1-0.2,0.2-0.3,0.4-0.5c0.4-0.5,0.8-1,1.2-1.4c0.2-0.3,0.4-0.6,0.6-0.9
			c0.1-0.4,0.2-0.7,0.2-1.1c0-0.5-0.1-0.8-0.3-1c-0.2-0.2-0.4-0.3-0.6-0.3c-0.3,0-0.5,0.1-0.7,0.3c-0.2,0.2-0.3,0.3-0.3,0.5
			c0.2,0,0.3,0,0.5,0.1c0.1,0.1,0.2,0.2,0.2,0.4c0,0.2-0.1,0.3-0.2,0.4c-0.1,0.1-0.2,0.1-0.3,0.1s-0.2,0-0.3-0.1
			c-0.1-0.1-0.2-0.3-0.2-0.6c0-0.4,0.2-0.8,0.6-1.2c0.3-0.3,0.6-0.4,1.1-0.4c0.5,0,0.8,0.1,1.1,0.4c0.3,0.3,0.4,0.7,0.4,1.2
			c0,0.5-0.2,1-0.6,1.4c-0.3,0.3-0.5,0.4-0.6,0.6c-0.5,0.4-0.9,0.9-1.3,1.3h1.7c0.2,0,0.3-0.1,0.4-0.3c0.1-0.2,0.1-0.4,0.2-0.6
			H226.9z"/>
	</g>
</g>
<g id="猫足跡">
	<g>
		<path d="M132.8,25.8c-1.2,0.6-1.8-1-2.7-2.7s-1.9-3.1-0.7-3.8c1.2-0.6,3.7-0.2,4.6,1.5C135,22.6,134,25.2,132.8,25.8z"/>
		<ellipse transform="matrix(0.8791 -0.4766 0.4766 0.8791 7.4051 65.5246)" cx="132.9" cy="18.2" rx="1.1" ry="1.1"/>
		<ellipse transform="matrix(0.8791 -0.4766 0.4766 0.8791 7.0407 66.6528)" cx="134.9" cy="19.4" rx="1.1" ry="1.1"/>
		<ellipse transform="matrix(0.8791 -0.4766 0.4766 0.8791 6.1136 67.3265)" cx="135.8" cy="21.6" rx="1.1" ry="1.1"/>
		<ellipse transform="matrix(0.8791 -0.4766 0.4766 0.8791 4.9658 67.6057)" cx="135.7" cy="24" rx="1.1" ry="1.1"/>
	</g>
	<g>
		<path d="M141.8,17.7c-1.2,0.6-1.8-1-2.7-2.7s-1.9-3.1-0.7-3.8c1.2-0.6,3.7-0.2,4.6,1.5C143.9,14.5,142.9,17,141.8,17.7z"/>
		<ellipse transform="matrix(0.8791 -0.4766 0.4766 0.8791 12.3733 68.7879)" cx="141.8" cy="10" rx="1.1" ry="1.1"/>
		<ellipse transform="matrix(0.8791 -0.4766 0.4766 0.8791 12.0089 69.916)" cx="143.8" cy="11.3" rx="1.1" ry="1.1"/>
		<ellipse transform="matrix(0.8791 -0.4766 0.4766 0.8791 11.0818 70.5897)" cx="144.7" cy="13.5" rx="1.1" ry="1.1"/>
		<ellipse transform="matrix(0.8791 -0.4766 0.4766 0.8791 9.934 70.8689)" cx="144.7" cy="15.9" rx="1.1" ry="1.1"/>
	</g>
	<g>
		<path d="M151.2,27.2c-1.2,0.6-1.8-1-2.7-2.7c-0.9-1.7-1.9-3.1-0.7-3.8c1.2-0.6,3.7-0.2,4.6,1.5C153.4,24,152.4,26.6,151.2,27.2z"
			/>
		<ellipse transform="matrix(0.8791 -0.4766 0.4766 0.8791 8.9868 74.4625)" cx="151.3" cy="19.5" rx="1.1" ry="1.1"/>
		<ellipse transform="matrix(0.8791 -0.4766 0.4766 0.8791 8.6223 75.5906)" cx="153.3" cy="20.8" rx="1.1" ry="1.1"/>
		<ellipse transform="matrix(0.8791 -0.4766 0.4766 0.8791 7.6953 76.2643)" cx="154.2" cy="23" rx="1.1" ry="1.1"/>
		<ellipse transform="matrix(0.8791 -0.4766 0.4766 0.8791 6.5475 76.5436)" cx="154.2" cy="25.4" rx="1.1" ry="1.1"/>
	</g>
	<g>
		<path d="M158.8,20.3c-1.2,0.6-1.8-1-2.7-2.7c-0.9-1.7-1.9-3.1-0.7-3.8c1.2-0.6,3.7-0.2,4.6,1.5S160,19.6,158.8,20.3z"/>
		<ellipse transform="matrix(0.8791 -0.4766 0.4766 0.8791 13.2041 77.2413)" cx="158.9" cy="12.6" rx="1.1" ry="1.1"/>
		<ellipse transform="matrix(0.8791 -0.4766 0.4766 0.8791 12.8397 78.3695)" cx="160.9" cy="13.9" rx="1.1" ry="1.1"/>
		<ellipse transform="matrix(0.8791 -0.4766 0.4766 0.8791 11.9126 79.0432)" cx="161.8" cy="16" rx="1.1" ry="1.1"/>
		<ellipse transform="matrix(0.8791 -0.4766 0.4766 0.8791 10.7648 79.3224)" cx="161.7" cy="18.4" rx="1.1" ry="1.1"/>
	</g>
	<g>
		<path d="M167.7,27.5c-1.2,0.6-1.8-1-2.7-2.7c-0.9-1.7-1.9-3.1-0.7-3.8c1.2-0.6,3.7-0.2,4.6,1.5C169.8,24.3,168.9,26.9,167.7,27.5z
			"/>
		<ellipse transform="matrix(0.8791 -0.4766 0.4766 0.8791 10.808 82.3384)" cx="167.7" cy="19.9" rx="1.1" ry="1.1"/>
		<ellipse transform="matrix(0.8791 -0.4766 0.4766 0.8791 10.4435 83.4665)" cx="169.8" cy="21.1" rx="1.1" ry="1.1"/>
		<ellipse transform="matrix(0.8791 -0.4766 0.4766 0.8791 9.5164 84.1402)" cx="170.6" cy="23.3" rx="1.1" ry="1.1"/>
		<ellipse transform="matrix(0.8791 -0.4766 0.4766 0.8791 8.3686 84.4195)" cx="170.6" cy="25.7" rx="1.1" ry="1.1"/>
	</g>
</g>
</svg>
